<?xml version="1.0" standalone="no"?><!DOCTYPE svg PUBLIC "-//W3C//DTD SVG 1.1//EN" "http://www.w3.org/Graphics/SVG/1.1/DTD/svg11.dtd"><svg t="1498299905464" class="icon" style="" viewBox="0 0 1024 1024" version="1.1" xmlns="http://www.w3.org/2000/svg" p-id="2388" xmlns:xlink="http://www.w3.org/1999/xlink" width="128" height="128"><defs><style type="text/css"></style></defs><path d="M751.979118 195.775872c28.093848 19.963681 53.015448 42.574654 74.846662 67.820642 21.830191 25.26543 40.533159 52.553936 56.143695 81.865519 15.612583 29.311583 27.444049 60.33618 35.531238 93.088118 8.131191 32.746822 12.177344 65.968457 12.177344 99.632161 0 58.012252-11.047614 112.413256-33.226752 163.253154-22.138206 50.834782-52.055586 95.109148-89.809445 132.852774-37.747719 37.72623-82.022085 67.672262-132.858914 89.801259-50.79692 22.13616-105.246019 33.227776-163.216315 33.227776-57.408501 0-111.511723-11.091616-162.350598-33.227776-50.836829-22.128997-95.28618-52.075029-133.295865-89.801259-38.053688-37.743626-68.02121-82.017992-89.852424-132.852774-21.830191-50.840922-32.746822-105.240903-32.746822-163.253154 0-33.053814 3.916193-65.4742 11.697413-97.283674 7.829316-31.816636 18.874883-62.058404 33.226752-90.759073 14.353916-28.681226 32.140001-55.493895 53.320393-80.455403 21.220301-24.940019 44.924165-47.40159 71.106478-67.364247 13.744026-9.979282 28.5308-13.72049 44.448328-11.215436 15.917528 2.498914 28.832675 10.283204 38.83447 23.393803 9.960863 13.087063 13.701047 27.743878 11.220552 43.966351-2.477424 16.222473-10.308787 29.312606-23.396873 39.290865-39.271422 28.682249-69.368904 63.924915-90.288352 105.720833-20.874423 41.788755-31.311123 86.692455-31.311123 134.708028 0 41.157375 7.78122 79.994915 23.354917 116.481921 15.611559 36.485983 36.965913 68.294432 64.100924 95.431489 27.139104 27.13501 58.927087 48.641837 95.421256 64.537875 36.485983 15.920598 75.322499 23.854291 116.510574 23.854291 41.137932 0 79.972403-7.933693 116.465548-23.854291 36.484959-15.896038 68.276013-37.399795 95.414093-64.537875 27.139104-27.137057 48.66435-58.945507 64.537875-95.431489 15.917528-36.487006 23.877827-75.324546 23.877827-116.481921 0-48.644907-11.220552-94.631264-33.662681-137.991818-22.481014-43.335994-53.972239-79.037101-94.499258-107.107413-13.744026-9.355065-22.01234-22.137183-24.791639-38.360679-2.827395-16.223496 0.476861-31.179117 9.829879-44.923142 9.347902-13.090133 22.135136-21.050432 38.35761-23.829731C723.315288 183.142134 738.278071 186.426947 751.979118 195.775872L751.979118 195.775872 751.979118 195.775872zM511.56663 541.005614c-16.22452 0-30.098505-5.78168-41.663912-17.308201-11.526521-11.546987-17.310248-25.416879-17.310248-41.640376L452.59247 126.542044c0-16.198937 5.783727-30.242791 17.310248-42.094724 11.565407-11.852956 25.438369-17.766642 41.663912-17.766642 16.82827 0 31.009248 5.913687 42.530652 17.766642 11.571546 11.851932 17.309224 25.895787 17.309224 42.094724l0 355.514993c0 16.223496-5.737678 30.094412-17.309224 41.640376C542.575878 535.222911 528.3949 541.005614 511.56663 541.005614L511.56663 541.005614 511.56663 541.005614zM511.56663 541.005614" p-id="2389"></path></svg>